<svg width="50" height="50" viewBox="0 0 50 50" fill="none" xmlns="http://www.w3.org/2000/svg">
<path d="M11.5 7.5H38.5C41.1667 7.5 42.5 8.83333 42.5 11.5V38.5C42.5 41.1667 41.1667 42.5 38.5 42.5H11.5C8.83333 42.5 7.5 41.1667 7.5 38.5V11.5C7.5 8.83333 8.83333 7.5 11.5 7.5Z" fill="#29B4FF"/>
<path d="M14.5 17.5C14.5 16.7044 14.8161 15.9413 15.3787 15.3787C15.9413 14.8161 16.7044 14.5 17.5 14.5H32.5C33.2956 14.5 34.0587 14.8161 34.6213 15.3787C35.1839 15.9413 35.5 16.7044 35.5 17.5V32.5C35.5 33.2956 35.1839 34.0587 34.6213 34.6213C34.0587 35.1839 33.2956 35.5 32.5 35.5H17.5C16.7044 35.5 15.9413 35.1839 15.3787 34.6213C14.8161 34.0587 14.5 33.2956 14.5 32.5V17.5Z" fill="#7BD1FF"/>
<path d="M14 1.5C13.4696 1.5 12.9609 1.71071 12.5858 2.08579C12.2107 2.46086 12 2.96957 12 3.5V7.5H16V3.5C16 2.96957 15.7893 2.46086 15.4142 2.08579C15.0391 1.71071 14.5304 1.5 14 1.5ZM21.5 1.5C20.9696 1.5 20.4609 1.71071 20.0858 2.08579C19.7107 2.46086 19.5 2.96957 19.5 3.5V7.5H23.5V3.5C23.5 2.96957 23.2893 2.46086 22.9142 2.08579C22.5391 1.71071 22.0304 1.5 21.5 1.5ZM27 3.5C27 2.96957 27.2107 2.46086 27.5858 2.08579C27.9609 1.71071 28.4696 1.5 29 1.5C29.5304 1.5 30.0391 1.71071 30.4142 2.08579C30.7893 2.46086 31 2.96957 31 3.5V7.5H27V3.5ZM36.5 1.5C35.9696 1.5 35.4609 1.71071 35.0858 2.08579C34.7107 2.46086 34.5 2.96957 34.5 3.5V7.5H38.5V3.5C38.5 2.96957 38.2893 2.46086 37.9142 2.08579C37.5391 1.71071 37.0304 1.5 36.5 1.5ZM1.5 14C1.5 13.4696 1.71071 12.9609 2.08579 12.5858C2.46086 12.2107 2.96957 12 3.5 12H7.5V16H3.5C2.96957 16 2.46086 15.7893 2.08579 15.4142C1.71071 15.0391 1.5 14.5304 1.5 14ZM1.5 21.5C1.5 20.9696 1.71071 20.4609 2.08579 20.0858C2.46086 19.7107 2.96957 19.5 3.5 19.5H7.5V23.5H3.5C2.96957 23.5 2.46086 23.2893 2.08579 22.9142C1.71071 22.5391 1.5 22.0304 1.5 21.5ZM3.5 27C2.96957 27 2.46086 27.2107 2.08579 27.5858C1.71071 27.9609 1.5 28.4696 1.5 29C1.5 29.5304 1.71071 30.0391 2.08579 30.4142C2.46086 30.7893 2.96957 31 3.5 31H7.5V27H3.5ZM1.5 36.5C1.5 35.9696 1.71071 35.4609 2.08579 35.0858C2.46086 34.7107 2.96957 34.5 3.5 34.5H7.5V38.5H3.5C2.96957 38.5 2.46086 38.2893 2.08579 37.9142C1.71071 37.5391 1.5 37.0304 1.5 36.5ZM48.5 14C48.5 13.4696 48.2893 12.9609 47.9142 12.5858C47.5391 12.2107 47.0304 12 46.5 12H42.5V16H46.5C47.0304 16 47.5391 15.7893 47.9142 15.4142C48.2893 15.0391 48.5 14.5304 48.5 14ZM48.5 21.5C48.5 20.9696 48.2893 20.4609 47.9142 20.0858C47.5391 19.7107 47.0304 19.5 46.5 19.5H42.5V23.5H46.5C47.0304 23.5 47.5391 23.2893 47.9142 22.9142C48.2893 22.5391 48.5 22.0304 48.5 21.5ZM46.5 27C47.0304 27 47.5391 27.2107 47.9142 27.5858C48.2893 27.9609 48.5 28.4696 48.5 29C48.5 29.5304 48.2893 30.0391 47.9142 30.4142C47.5391 30.7893 47.0304 31 46.5 31H42.5V27H46.5ZM48.5 36.5C48.5 35.9696 48.2893 35.4609 47.9142 35.0858C47.5391 34.7107 47.0304 34.5 46.5 34.5H42.5V38.5H46.5C47.0304 38.5 47.5391 38.2893 47.9142 37.9142C48.2893 37.5391 48.5 37.0304 48.5 36.5ZM12 46.5C12 47.0304 12.2107 47.5391 12.5858 47.9142C12.9609 48.2893 13.4696 48.5 14 48.5C14.5304 48.5 15.0391 48.2893 15.4142 47.9142C15.7893 47.5391 16 47.0304 16 46.5V42.5H12V46.5ZM19.5 46.5C19.5 47.0304 19.7107 47.5391 20.0858 47.9142C20.4609 48.2893 20.9696 48.5 21.5 48.5C22.0304 48.5 22.5391 48.2893 22.9142 47.9142C23.2893 47.5391 23.5 47.0304 23.5 46.5V42.5H19.5V46.5ZM29 48.5C28.7374 48.5 28.4773 48.4483 28.2346 48.3478C27.992 48.2472 27.7715 48.0999 27.5858 47.9142C27.4001 47.7285 27.2528 47.508 27.1522 47.2654C27.0517 47.0227 27 46.7626 27 46.5V42.5H31V46.5C31 46.7626 30.9483 47.0227 30.8478 47.2654C30.7472 47.508 30.5999 47.7285 30.4142 47.9142C30.2285 48.0999 30.008 48.2472 29.7654 48.3478C29.5227 48.4483 29.2626 48.5 29 48.5ZM34.5 46.5C34.5 47.0304 34.7107 47.5391 35.0858 47.9142C35.4609 48.2893 35.9696 48.5 36.5 48.5C37.0304 48.5 37.5391 48.2893 37.9142 47.9142C38.2893 47.5391 38.5 47.0304 38.5 46.5V42.5H34.5V46.5Z" fill="#0099EE"/>
</svg>
