<svg width="50" height="50" viewBox="0 0 50 50" fill="none" xmlns="http://www.w3.org/2000/svg">
<path d="M7.60847 15.995L7.54547 16.0265V33.825L24.998 42.99V24.675L7.60847 15.995Z" fill="white"/>
<path d="M42.4035 16.011L24.9825 6.84497L8.26753 15.635L7.59253 15.996L24.9825 24.675L25.1865 24.581L42.45 16.0425L42.403 16.011H42.4035Z" fill="#FFF1B8"/>
<path d="M45.888 14.3315C45.6169 13.7813 45.1843 13.3269 44.648 13.029L26.3165 3.32953C25.905 3.11368 25.4472 3.00092 24.9825 3.00092C24.5178 3.00092 24.06 3.11368 23.6485 3.32953L5.33249 12.966C5.0394 13.1393 4.78335 13.3687 4.57899 13.641C4.39562 13.8232 4.23738 14.029 4.10849 14.253C3.88516 14.6512 3.76646 15.0995 3.76349 15.556V34.3895C3.76837 34.9161 3.91713 35.4313 4.19367 35.8794C4.47021 36.3276 4.86402 36.6915 5.33249 36.932L23.6325 46.5685C24.0342 46.7877 24.4789 46.9163 24.9355 46.9455H25.1555C25.5426 46.9187 25.9208 46.8173 26.2695 46.647L44.5695 36.9635C45.0406 36.7179 45.4357 36.3484 45.7123 35.8948C45.9888 35.4412 46.1364 34.9208 46.139 34.3895V15.556C46.1489 15.1341 46.0631 14.7155 45.888 14.3315ZM42.45 16.0425L25.1865 24.58L24.9825 24.69V43.005L7.51399 33.825V16.0265L8.18899 15.6655L24.9825 6.84553L42.4035 16.0105L42.4505 16.0425H42.45Z" fill="#FAAD14"/>
</svg>
