<svg width="50" height="50" viewBox="0 0 50 50" fill="none" xmlns="http://www.w3.org/2000/svg">
<path d="M43.793 8.71103L41.5695 7.75853C33.7785 4.41953 24.7495 7.95003 21.2895 15.6885L13.885 37.01C13.3529 38.5425 13.3722 40.2127 13.9395 41.7325L13.9965 41.8855C14.4445 43.0857 15.2245 44.1337 16.2455 44.9073C17.2666 45.6809 18.4866 46.1481 19.7632 46.2546C21.0397 46.361 22.3203 46.1021 23.4553 45.5083C24.5903 44.9144 25.5331 44.01 26.1735 42.9005L30.3105 35.735C32.1295 32.585 34.5655 29.8345 37.4735 27.649L44.615 22.282C49.285 18.772 48.8535 11.632 43.7935 8.71103H43.793Z" fill="#B5F5EC"/>
<path d="M32.6 11.625L30.377 10.6715C22.5855 7.33247 13.556 10.8635 10.0965 18.602L2.69301 39.9235C2.16072 41.4559 2.17982 43.1261 2.74701 44.646L2.80401 44.7985C3.25187 45.9988 4.03187 47.0469 5.05297 47.8206C6.07408 48.5943 7.29417 49.0616 8.57086 49.168C9.84754 49.2744 11.1282 49.0156 12.2633 48.4216C13.3984 47.8276 14.3411 46.9231 14.9815 45.8135L19.1185 38.6485C20.937 35.4985 23.3735 32.748 26.281 30.5625L33.422 25.195C38.092 21.685 37.66 14.545 32.6005 11.624L32.6 11.625Z" fill="#36CFC9"/>
<path d="M26.5 4C26.5 5.3805 25.4925 6.5 24.25 6.5C23.0075 6.5 22 5.3805 22 4C22 2.6195 23.0075 1.5 24.25 1.5C25.4925 1.5 26.5 2.6195 26.5 4ZM31.5 7.5C32.163 7.5 32.7989 7.23661 33.2678 6.76777C33.7366 6.29893 34 5.66304 34 5C34 4.33696 33.7366 3.70107 33.2678 3.23223C32.7989 2.76339 32.163 2.5 31.5 2.5C30.837 2.5 30.2011 2.76339 29.7322 3.23223C29.2634 3.70107 29 4.33696 29 5C29 5.66304 29.2634 6.29893 29.7322 6.76777C30.2011 7.23661 30.837 7.5 31.5 7.5ZM40.5 9.5C40.5 10.163 40.2366 10.7989 39.7678 11.2678C39.2989 11.7366 38.663 12 38 12C37.337 12 36.7011 11.7366 36.2322 11.2678C35.7634 10.7989 35.5 10.163 35.5 9.5C35.5 8.83696 35.7634 8.20107 36.2322 7.73223C36.7011 7.26339 37.337 7 38 7C38.663 7 39.2989 7.26339 39.7678 7.73223C40.2366 8.20107 40.5 8.83696 40.5 9.5ZM49 17.75C49 20.6495 46.6495 23 43.75 23C40.8505 23 38.5 20.6495 38.5 17.75C38.5 14.8505 40.8505 12.5 43.75 12.5C46.6495 12.5 49 14.8505 49 17.75ZM17.5 9C18.163 9 18.7989 8.73661 19.2678 8.26777C19.7366 7.79893 20 7.16304 20 6.5C20 5.83696 19.7366 5.20107 19.2678 4.73223C18.7989 4.26339 18.163 4 17.5 4C16.837 4 16.2011 4.26339 15.7322 4.73223C15.2634 5.20107 15 5.83696 15 6.5C15 7.16304 15.2634 7.79893 15.7322 8.26777C16.2011 8.73661 16.837 9 17.5 9Z" fill="#36CFC9"/>
</svg>
