<svg width="94" height="123" viewBox="0 0 94 123" fill="none" xmlns="http://www.w3.org/2000/svg">
<path d="M0 0.376953V122.252H4.6875H93.75V31.2485L62.8784 0.376953H0ZM9.375 9.75195H56.25V37.877H84.375V112.877H9.375V9.75195ZM65.625 16.3804L77.7466 28.502H65.625V16.3804ZM32.8125 56.627C31.5693 56.627 30.377 57.1208 29.4979 57.9999C28.6189 58.879 28.125 60.0713 28.125 61.3145C28.125 62.5577 28.6189 63.7499 29.4979 64.629C30.377 65.5081 31.5693 66.002 32.8125 66.002C34.0557 66.002 35.248 65.5081 36.1271 64.629C37.0061 63.7499 37.5 62.5577 37.5 61.3145C37.5 60.0713 37.0061 58.879 36.1271 57.9999C35.248 57.1208 34.0557 56.627 32.8125 56.627ZM60.9375 56.627C59.6943 56.627 58.502 57.1208 57.6229 57.9999C56.7439 58.879 56.25 60.0713 56.25 61.3145C56.25 62.5577 56.7439 63.7499 57.6229 64.629C58.502 65.5081 59.6943 66.002 60.9375 66.002C62.1807 66.002 63.373 65.5081 64.2521 64.629C65.1311 63.7499 65.625 62.5577 65.625 61.3145C65.625 60.0713 65.1311 58.879 64.2521 57.9999C63.373 57.1208 62.1807 56.627 60.9375 56.627ZM31.6132 76.9333L24.6368 83.1956C24.6368 83.1956 33.691 94.127 46.875 94.127C60.059 94.127 69.1132 83.1956 69.1132 83.1956L62.1368 76.9333C62.1368 76.9333 54.4004 84.752 46.875 84.752C39.3496 84.752 31.6132 76.9333 31.6132 76.9333Z" fill="black"/>
</svg>
