<svg width="132" height="127" viewBox="0 0 132 127" fill="none" xmlns="http://www.w3.org/2000/svg">
<path d="M98.8125 0.0625V10.3896C97.089 10.81 95.4909 11.2856 94.0426 12.1017L86.929 4.98804L80.3005 11.6165L87.46 18.7759C86.614 20.3018 85.9441 21.8308 85.5465 23.5H75.375V32.875H85.5465C85.9442 34.5442 86.614 36.0732 87.46 37.5991L80.3005 44.7585L86.929 51.387L94.0426 44.2733C95.4909 45.0894 97.089 45.565 98.8125 45.9854V56.3125H108.188V45.9854C109.911 45.565 111.509 45.0894 112.957 44.2733L120.071 51.387L126.699 44.7585L119.54 37.5991C120.386 36.0732 121.056 34.5442 121.453 32.875H131.625V23.5H121.453C121.056 21.8308 120.386 20.3018 119.54 18.7759L126.699 11.6165L120.071 4.98804L112.957 12.1017C111.509 11.2856 109.911 10.81 108.188 10.3896V0.0625H98.8125ZM22.9061 1.90271L16.2777 8.53113L26.1196 18.373L32.748 11.7446L22.9061 1.90271ZM67.474 4.96057C65.4103 4.8967 63.3318 4.98657 61.2576 5.24438C42.4888 7.33032 26.9643 22.6248 24.3252 41.6091C22.3611 55.8685 27.8627 70.0653 39.0377 79.5669C44.2549 84.0341 47.25 90.5958 47.25 97.5662V98.5V103.188V121.938H57.9342C59.5639 124.724 62.5557 126.625 66 126.625C69.4453 126.625 72.4365 124.726 74.0658 121.938H84.75V103.188V97.5662C84.75 91.1115 88.216 84.3392 94.6285 78.3767C98.4489 74.5564 101.474 70.2533 103.72 65.6783C103.649 65.6783 103.575 65.6875 103.5 65.6875C100.134 65.6875 96.8894 65.1988 93.7863 64.3691C92.2253 66.9473 90.3549 69.4027 88.1283 71.6293C81.0361 78.2152 76.6907 85.9703 75.6313 93.8125H56.4144C55.4863 85.525 51.4961 77.882 45.1351 72.4258C36.2664 64.8883 32.0618 54.1266 33.6086 42.9C35.6618 28.1063 47.7357 16.1865 62.3654 14.5553C64.4888 14.2881 66.5878 14.2546 68.655 14.3905C69.9113 11.2218 71.583 8.278 73.608 5.60144C71.5854 5.24285 69.5377 5.02444 67.474 4.96057ZM103.5 18.8125C107.016 18.8125 109.056 19.9621 110.54 21.6323C112.025 23.3026 112.875 25.7135 112.875 28.1875C112.875 30.6615 112.025 33.0724 110.54 34.7427C109.056 36.4129 107.016 37.5625 103.5 37.5625C99.9844 37.5625 97.9443 36.4129 96.4596 34.7427C94.9749 33.0724 94.125 30.6615 94.125 28.1875C94.125 25.7135 94.9749 23.3026 96.4596 21.6323C97.9443 19.9621 99.9844 18.8125 103.5 18.8125ZM0.375 46.9375V56.3125H14.4375V46.9375H0.375ZM26.1196 84.877L16.2777 94.7189L22.9061 101.347L32.748 91.5054L26.1196 84.877ZM105.88 84.877L99.252 91.5054L109.094 101.347L115.722 94.7189L105.88 84.877ZM56.625 103.188H75.375V112.562H56.625V103.188Z" fill="black"/>
</svg>
