<svg width="113" height="104" viewBox="0 0 113 104" fill="none" xmlns="http://www.w3.org/2000/svg">
<path d="M0 0.0166016V103.142H112.5V0.0166016H0ZM9.375 9.3916H103.125V18.7666H9.375V9.3916ZM9.375 28.1416H103.125V93.7666H9.375V28.1416ZM56.25 37.5166L46.875 84.3916H56.25L65.625 37.5166H56.25ZM33.6914 39.4209L19.6289 58.1709L17.5781 60.9541L19.6289 63.7373L33.6914 82.4873L41.3086 76.9209L29.2969 60.9541L41.3086 44.9873L33.6914 39.4209ZM78.8086 39.4209L71.1914 44.9873L83.2031 60.9541L71.1914 76.9209L78.8086 82.4873L92.8711 63.7373L94.9219 60.9541L92.8711 58.1709L78.8086 39.4209Z" fill="black"/>
</svg>
