<svg width="50" height="50" viewBox="0 0 50 50" fill="none" xmlns="http://www.w3.org/2000/svg">
<path d="M9.40594 2.9703C9.40594 2.58023 9.48277 2.19399 9.63205 1.83361C9.78132 1.47324 10.0001 1.1458 10.2759 0.86998C10.5517 0.594162 10.8792 0.375372 11.2396 0.2261C11.5999 0.076829 11.9862 -6.4122e-09 12.3762 0L37.1287 0C37.9165 0 38.672 0.312941 39.229 0.86998C39.7861 1.42702 40.099 2.18253 40.099 2.9703V17.3267L24.7525 29.2079L9.40594 17.3267V2.9703Z" fill="#FF7744"/>
<path d="M21.7822 26.9084L15.8416 22.3094V0.495056H21.7822V26.9084ZM34.1584 21.9257L28.2179 26.5248V0.495056H34.1584V21.9257Z" fill="#FFA17E"/>
<path d="M9.40594 34.6535C9.40594 38.7236 11.0228 42.6271 13.9008 45.5051C16.7789 48.3832 20.6823 50 24.7525 50C28.8226 50 32.7261 48.3832 35.6041 45.5051C38.4822 42.6271 40.099 38.7236 40.099 34.6535C40.099 30.5833 38.4822 26.6799 35.6041 23.8018C32.7261 20.9238 28.8226 19.3069 24.7525 19.3069C20.6823 19.3069 16.7789 20.9238 13.9008 23.8018C11.0228 26.6799 9.40594 30.5833 9.40594 34.6535Z" fill="#E36130"/>
<path d="M12.8713 34.6535C12.8713 36.2137 13.1786 37.7587 13.7757 39.2002C14.3728 40.6417 15.2479 41.9515 16.3512 43.0547C17.4545 44.158 18.7642 45.0332 20.2057 45.6303C21.6472 46.2273 23.1922 46.5347 24.7525 46.5347C26.3127 46.5347 27.8577 46.2273 29.2992 45.6303C30.7407 45.0332 32.0505 44.158 33.1537 43.0547C34.257 41.9515 35.1322 40.6417 35.7293 39.2002C36.3263 37.7587 36.6337 36.2137 36.6337 34.6535C36.6337 33.0932 36.3263 31.5482 35.7293 30.1067C35.1322 28.6652 34.257 27.3555 33.1537 26.2522C32.0505 25.1489 30.7407 24.2738 29.2992 23.6767C27.8577 23.0796 26.3127 22.7723 24.7525 22.7723C23.1922 22.7723 21.6472 23.0796 20.2057 23.6767C18.7642 24.2738 17.4545 25.1489 16.3512 26.2522C15.2479 27.3555 14.3728 28.6652 13.7757 30.1067C13.1786 31.5482 12.8713 33.0932 12.8713 34.6535Z" fill="#FF7744"/>
<path d="M24.7525 26.7327L26.5307 32.2059H32.2856L27.6297 35.5881L29.4084 41.0614L24.7525 37.6792L20.0965 41.0614L21.8752 35.5881L17.2193 32.2059H22.9742L24.7525 26.7327Z" fill="#FFA17E"/>
</svg>
