<svg width="543" height="533" viewBox="0 0 543 533" fill="none" xmlns="http://www.w3.org/2000/svg">
<path d="M392.75 253.044L261.5 384.294H327.125C369 384.294 392.75 353.044 392.75 318.669V253.044Z" fill="white"/>
<path d="M261.5 384.294L393.853 251.941L526.206 251.941V516.646H261.5L261.5 384.294ZM261.5 384.294L392.75 253.044M261.5 384.294H327.125C369 384.294 392.75 353.044 392.75 318.669V253.044M261.5 384.294L300 345.794L306.794 339L327.125 318.669L363.5 282.294L392.75 253.044M261.5 384.294H200.554H16.7305V16.6465H392.75V200.47V253.044M268.569 200.47C268.569 238.034 238.117 268.485 200.554 268.485C162.991 268.485 132.539 238.034 132.539 200.47C132.539 162.907 162.991 132.455 200.554 132.455C238.117 132.455 268.569 162.907 268.569 200.47Z" stroke="black" stroke-width="32"/>
</svg>
